# xmcd
#
# Track frame offsets: 
#        300
#        16690
#        33089
#        50943
#        68761
#        94178
#        107881
#        125587
#        140933
#        155908
#
# Disc length: 2333 seconds
#
# Revision: 0
# Processed by: cddbd v1.5.2PL0 Copyright (c) Steve Scherf et al.
# Submitted via: ExactAudioCopy v1.0b1
#
DISCID=9209190a
DTITLE=Bobby "Blue" Bland - His California Album
DYEAR=1973
DGENRE=Soul Blues
TTITLE0=This Time I'm Gone for Good
TTITLE1=Up and Down World
TTITLE2=It's Not the Spotlight
TTITLE3=If Loving You Is Wrong I Don't Want to Be Right
TTITLE4=Goin' Down Slow
TTITLE5=The Right Place at the Right Time
TTITLE6=Help Me Through the Day
TTITLE7=Where My Baby Went
TTITLE8=Friday the 13th Child
TTITLE9=I've Got to Use My Imagination
EXTD=
EXTT0=
EXTT1=
EXTT2=
EXTT3=
EXTT4=
EXTT5=
EXTT6=
EXTT7=
EXTT8=
EXTT9=
PLAYORDER=
